<mxfile host="app.diagrams.net" modified="2024-12-01T22:15:54.447Z" agent="Mozilla/5.0 (Windows NT 10.0; Win64; x64) AppleWebKit/537.36 (KHTML, like Gecko) Chrome/128.0.0.0 Safari/537.36 OPR/114.0.0.0" etag="B4_ykQ_jSZsfHeuGtXYw" version="24.6.3" type="device">
  <diagram name="Page-1" id="sw_HxCXHoutVui8Q21bs">
    <mxGraphModel dx="1193" dy="623" grid="1" gridSize="10" guides="1" tooltips="1" connect="1" arrows="1" fold="1" page="1" pageScale="1" pageWidth="827" pageHeight="1169" math="0" shadow="0">
      <root>
        <mxCell id="0" />
        <mxCell id="1" parent="0" />
        <mxCell id="UZixV6U_UvThIk1ytOzq-2" value="Start" style="rounded=1;whiteSpace=wrap;html=1;" vertex="1" parent="1">
          <mxGeometry x="210" y="50" width="90" height="40" as="geometry" />
        </mxCell>
        <mxCell id="UZixV6U_UvThIk1ytOzq-4" value="Initialization" style="rounded=0;whiteSpace=wrap;html=1;" vertex="1" parent="1">
          <mxGeometry x="210" y="130" width="90" height="50" as="geometry" />
        </mxCell>
        <mxCell id="UZixV6U_UvThIk1ytOzq-5" value="Start" style="rounded=1;whiteSpace=wrap;html=1;" vertex="1" parent="1">
          <mxGeometry x="210" y="50" width="90" height="40" as="geometry" />
        </mxCell>
        <mxCell id="UZixV6U_UvThIk1ytOzq-6" value="" style="endArrow=classic;html=1;rounded=0;" edge="1" parent="1" source="UZixV6U_UvThIk1ytOzq-5" target="UZixV6U_UvThIk1ytOzq-4">
          <mxGeometry width="50" height="50" relative="1" as="geometry">
            <mxPoint x="390" y="310" as="sourcePoint" />
            <mxPoint x="440" y="260" as="targetPoint" />
          </mxGeometry>
        </mxCell>
        <mxCell id="UZixV6U_UvThIk1ytOzq-7" value="" style="points=[[0.25,0,0],[0.5,0,0],[0.75,0,0],[1,0.25,0],[1,0.5,0],[1,0.75,0],[0.75,1,0],[0.5,1,0],[0.25,1,0],[0,0.75,0],[0,0.5,0],[0,0.25,0]];shape=mxgraph.bpmn.task;whiteSpace=wrap;rectStyle=rounded;size=10;html=1;container=1;expand=0;collapsible=0;taskMarker=abstract;isLoopStandard=1;" vertex="1" parent="1">
          <mxGeometry x="120" y="220" width="270" height="680" as="geometry" />
        </mxCell>
        <mxCell id="UZixV6U_UvThIk1ytOzq-222" style="edgeStyle=orthogonalEdgeStyle;rounded=0;orthogonalLoop=1;jettySize=auto;html=1;" edge="1" parent="UZixV6U_UvThIk1ytOzq-7" source="UZixV6U_UvThIk1ytOzq-28" target="UZixV6U_UvThIk1ytOzq-219">
          <mxGeometry relative="1" as="geometry" />
        </mxCell>
        <mxCell id="UZixV6U_UvThIk1ytOzq-28" value="&lt;ul&gt;&lt;li&gt;Sensor 1 Data Raw&lt;/li&gt;&lt;li&gt;Sensor 2 Data Raw&amp;nbsp;&lt;/li&gt;&lt;li&gt;Sensor 3 Data Raw&lt;/li&gt;&lt;/ul&gt;" style="text;strokeColor=none;fillColor=none;html=1;whiteSpace=wrap;verticalAlign=middle;overflow=hidden;" vertex="1" parent="UZixV6U_UvThIk1ytOzq-7">
          <mxGeometry x="60" y="99.99967741935484" width="150" height="65.80645161290322" as="geometry" />
        </mxCell>
        <mxCell id="UZixV6U_UvThIk1ytOzq-213" value="" style="group;fillColor=#d5e8d4;strokeColor=#82b366;fillStyle=solid;" vertex="1" connectable="0" parent="UZixV6U_UvThIk1ytOzq-7">
          <mxGeometry x="55" y="270.0012903225806" width="160" height="87.19354838709677" as="geometry" />
        </mxCell>
        <mxCell id="UZixV6U_UvThIk1ytOzq-146" value="&amp;nbsp;Sensor Data&lt;div&gt;&lt;br&gt;&lt;/div&gt;&lt;div&gt;&lt;br&gt;&lt;/div&gt;&lt;div&gt;&lt;br&gt;&lt;/div&gt;&lt;div&gt;&lt;br&gt;&lt;/div&gt;" style="whiteSpace=wrap;html=1;align=left;" vertex="1" parent="UZixV6U_UvThIk1ytOzq-213">
          <mxGeometry width="160" height="87.19354838709677" as="geometry" />
        </mxCell>
        <mxCell id="UZixV6U_UvThIk1ytOzq-173" value="" style="shape=table;startSize=0;container=1;collapsible=0;childLayout=tableLayout;fontSize=16;" vertex="1" parent="UZixV6U_UvThIk1ytOzq-213">
          <mxGeometry x="60" y="32.90322580645161" width="40" height="42.774193548387096" as="geometry" />
        </mxCell>
        <mxCell id="UZixV6U_UvThIk1ytOzq-174" value="" style="shape=tableRow;horizontal=0;startSize=0;swimlaneHead=0;swimlaneBody=0;strokeColor=inherit;top=0;left=0;bottom=0;right=0;collapsible=0;dropTarget=0;fillColor=none;points=[[0,0.5],[1,0.5]];portConstraint=eastwest;fontSize=16;" vertex="1" parent="UZixV6U_UvThIk1ytOzq-173">
          <mxGeometry width="40" height="14" as="geometry" />
        </mxCell>
        <mxCell id="UZixV6U_UvThIk1ytOzq-175" value="" style="shape=partialRectangle;html=1;whiteSpace=wrap;connectable=0;strokeColor=inherit;overflow=hidden;fillColor=none;top=0;left=0;bottom=0;right=0;pointerEvents=1;fontSize=16;" vertex="1" parent="UZixV6U_UvThIk1ytOzq-174">
          <mxGeometry width="13" height="14" as="geometry">
            <mxRectangle width="13" height="14" as="alternateBounds" />
          </mxGeometry>
        </mxCell>
        <mxCell id="UZixV6U_UvThIk1ytOzq-176" value="" style="shape=partialRectangle;html=1;whiteSpace=wrap;connectable=0;strokeColor=inherit;overflow=hidden;fillColor=none;top=0;left=0;bottom=0;right=0;pointerEvents=1;fontSize=16;" vertex="1" parent="UZixV6U_UvThIk1ytOzq-174">
          <mxGeometry x="13" width="14" height="14" as="geometry">
            <mxRectangle width="14" height="14" as="alternateBounds" />
          </mxGeometry>
        </mxCell>
        <mxCell id="UZixV6U_UvThIk1ytOzq-177" value="" style="shape=partialRectangle;html=1;whiteSpace=wrap;connectable=0;strokeColor=inherit;overflow=hidden;fillColor=none;top=0;left=0;bottom=0;right=0;pointerEvents=1;fontSize=16;" vertex="1" parent="UZixV6U_UvThIk1ytOzq-174">
          <mxGeometry x="27" width="13" height="14" as="geometry">
            <mxRectangle width="13" height="14" as="alternateBounds" />
          </mxGeometry>
        </mxCell>
        <mxCell id="UZixV6U_UvThIk1ytOzq-178" value="" style="shape=tableRow;horizontal=0;startSize=0;swimlaneHead=0;swimlaneBody=0;strokeColor=inherit;top=0;left=0;bottom=0;right=0;collapsible=0;dropTarget=0;fillColor=none;points=[[0,0.5],[1,0.5]];portConstraint=eastwest;fontSize=16;" vertex="1" parent="UZixV6U_UvThIk1ytOzq-173">
          <mxGeometry y="14" width="40" height="15" as="geometry" />
        </mxCell>
        <mxCell id="UZixV6U_UvThIk1ytOzq-179" value="" style="shape=partialRectangle;html=1;whiteSpace=wrap;connectable=0;strokeColor=inherit;overflow=hidden;fillColor=none;top=0;left=0;bottom=0;right=0;pointerEvents=1;fontSize=16;" vertex="1" parent="UZixV6U_UvThIk1ytOzq-178">
          <mxGeometry width="13" height="15" as="geometry">
            <mxRectangle width="13" height="15" as="alternateBounds" />
          </mxGeometry>
        </mxCell>
        <mxCell id="UZixV6U_UvThIk1ytOzq-180" value="" style="shape=partialRectangle;html=1;whiteSpace=wrap;connectable=0;strokeColor=inherit;overflow=hidden;fillColor=none;top=0;left=0;bottom=0;right=0;pointerEvents=1;fontSize=16;" vertex="1" parent="UZixV6U_UvThIk1ytOzq-178">
          <mxGeometry x="13" width="14" height="15" as="geometry">
            <mxRectangle width="14" height="15" as="alternateBounds" />
          </mxGeometry>
        </mxCell>
        <mxCell id="UZixV6U_UvThIk1ytOzq-181" value="" style="shape=partialRectangle;html=1;whiteSpace=wrap;connectable=0;strokeColor=inherit;overflow=hidden;fillColor=none;top=0;left=0;bottom=0;right=0;pointerEvents=1;fontSize=16;" vertex="1" parent="UZixV6U_UvThIk1ytOzq-178">
          <mxGeometry x="27" width="13" height="15" as="geometry">
            <mxRectangle width="13" height="15" as="alternateBounds" />
          </mxGeometry>
        </mxCell>
        <mxCell id="UZixV6U_UvThIk1ytOzq-182" value="" style="shape=tableRow;horizontal=0;startSize=0;swimlaneHead=0;swimlaneBody=0;strokeColor=inherit;top=0;left=0;bottom=0;right=0;collapsible=0;dropTarget=0;fillColor=none;points=[[0,0.5],[1,0.5]];portConstraint=eastwest;fontSize=16;" vertex="1" parent="UZixV6U_UvThIk1ytOzq-173">
          <mxGeometry y="29" width="40" height="14" as="geometry" />
        </mxCell>
        <mxCell id="UZixV6U_UvThIk1ytOzq-183" value="" style="shape=partialRectangle;html=1;whiteSpace=wrap;connectable=0;strokeColor=inherit;overflow=hidden;fillColor=none;top=0;left=0;bottom=0;right=0;pointerEvents=1;fontSize=16;" vertex="1" parent="UZixV6U_UvThIk1ytOzq-182">
          <mxGeometry width="13" height="14" as="geometry">
            <mxRectangle width="13" height="14" as="alternateBounds" />
          </mxGeometry>
        </mxCell>
        <mxCell id="UZixV6U_UvThIk1ytOzq-184" value="" style="shape=partialRectangle;html=1;whiteSpace=wrap;connectable=0;strokeColor=inherit;overflow=hidden;fillColor=none;top=0;left=0;bottom=0;right=0;pointerEvents=1;fontSize=16;" vertex="1" parent="UZixV6U_UvThIk1ytOzq-182">
          <mxGeometry x="13" width="14" height="14" as="geometry">
            <mxRectangle width="14" height="14" as="alternateBounds" />
          </mxGeometry>
        </mxCell>
        <mxCell id="UZixV6U_UvThIk1ytOzq-185" value="" style="shape=partialRectangle;html=1;whiteSpace=wrap;connectable=0;strokeColor=inherit;overflow=hidden;fillColor=none;top=0;left=0;bottom=0;right=0;pointerEvents=1;fontSize=16;" vertex="1" parent="UZixV6U_UvThIk1ytOzq-182">
          <mxGeometry x="27" width="13" height="14" as="geometry">
            <mxRectangle width="13" height="14" as="alternateBounds" />
          </mxGeometry>
        </mxCell>
        <mxCell id="UZixV6U_UvThIk1ytOzq-186" value="" style="shape=table;startSize=0;container=1;collapsible=0;childLayout=tableLayout;fontSize=16;" vertex="1" parent="UZixV6U_UvThIk1ytOzq-213">
          <mxGeometry x="110" y="32.90322580645161" width="40" height="42.774193548387096" as="geometry" />
        </mxCell>
        <mxCell id="UZixV6U_UvThIk1ytOzq-187" value="" style="shape=tableRow;horizontal=0;startSize=0;swimlaneHead=0;swimlaneBody=0;strokeColor=inherit;top=0;left=0;bottom=0;right=0;collapsible=0;dropTarget=0;fillColor=none;points=[[0,0.5],[1,0.5]];portConstraint=eastwest;fontSize=16;" vertex="1" parent="UZixV6U_UvThIk1ytOzq-186">
          <mxGeometry width="40" height="14" as="geometry" />
        </mxCell>
        <mxCell id="UZixV6U_UvThIk1ytOzq-188" value="" style="shape=partialRectangle;html=1;whiteSpace=wrap;connectable=0;strokeColor=inherit;overflow=hidden;fillColor=none;top=0;left=0;bottom=0;right=0;pointerEvents=1;fontSize=16;" vertex="1" parent="UZixV6U_UvThIk1ytOzq-187">
          <mxGeometry width="13" height="14" as="geometry">
            <mxRectangle width="13" height="14" as="alternateBounds" />
          </mxGeometry>
        </mxCell>
        <mxCell id="UZixV6U_UvThIk1ytOzq-189" value="" style="shape=partialRectangle;html=1;whiteSpace=wrap;connectable=0;strokeColor=inherit;overflow=hidden;fillColor=none;top=0;left=0;bottom=0;right=0;pointerEvents=1;fontSize=16;" vertex="1" parent="UZixV6U_UvThIk1ytOzq-187">
          <mxGeometry x="13" width="14" height="14" as="geometry">
            <mxRectangle width="14" height="14" as="alternateBounds" />
          </mxGeometry>
        </mxCell>
        <mxCell id="UZixV6U_UvThIk1ytOzq-190" value="" style="shape=partialRectangle;html=1;whiteSpace=wrap;connectable=0;strokeColor=inherit;overflow=hidden;fillColor=none;top=0;left=0;bottom=0;right=0;pointerEvents=1;fontSize=16;" vertex="1" parent="UZixV6U_UvThIk1ytOzq-187">
          <mxGeometry x="27" width="13" height="14" as="geometry">
            <mxRectangle width="13" height="14" as="alternateBounds" />
          </mxGeometry>
        </mxCell>
        <mxCell id="UZixV6U_UvThIk1ytOzq-191" value="" style="shape=tableRow;horizontal=0;startSize=0;swimlaneHead=0;swimlaneBody=0;strokeColor=inherit;top=0;left=0;bottom=0;right=0;collapsible=0;dropTarget=0;fillColor=none;points=[[0,0.5],[1,0.5]];portConstraint=eastwest;fontSize=16;" vertex="1" parent="UZixV6U_UvThIk1ytOzq-186">
          <mxGeometry y="14" width="40" height="15" as="geometry" />
        </mxCell>
        <mxCell id="UZixV6U_UvThIk1ytOzq-192" value="" style="shape=partialRectangle;html=1;whiteSpace=wrap;connectable=0;strokeColor=inherit;overflow=hidden;fillColor=none;top=0;left=0;bottom=0;right=0;pointerEvents=1;fontSize=16;" vertex="1" parent="UZixV6U_UvThIk1ytOzq-191">
          <mxGeometry width="13" height="15" as="geometry">
            <mxRectangle width="13" height="15" as="alternateBounds" />
          </mxGeometry>
        </mxCell>
        <mxCell id="UZixV6U_UvThIk1ytOzq-193" value="" style="shape=partialRectangle;html=1;whiteSpace=wrap;connectable=0;strokeColor=inherit;overflow=hidden;fillColor=none;top=0;left=0;bottom=0;right=0;pointerEvents=1;fontSize=16;" vertex="1" parent="UZixV6U_UvThIk1ytOzq-191">
          <mxGeometry x="13" width="14" height="15" as="geometry">
            <mxRectangle width="14" height="15" as="alternateBounds" />
          </mxGeometry>
        </mxCell>
        <mxCell id="UZixV6U_UvThIk1ytOzq-194" value="" style="shape=partialRectangle;html=1;whiteSpace=wrap;connectable=0;strokeColor=inherit;overflow=hidden;fillColor=none;top=0;left=0;bottom=0;right=0;pointerEvents=1;fontSize=16;" vertex="1" parent="UZixV6U_UvThIk1ytOzq-191">
          <mxGeometry x="27" width="13" height="15" as="geometry">
            <mxRectangle width="13" height="15" as="alternateBounds" />
          </mxGeometry>
        </mxCell>
        <mxCell id="UZixV6U_UvThIk1ytOzq-195" value="" style="shape=tableRow;horizontal=0;startSize=0;swimlaneHead=0;swimlaneBody=0;strokeColor=inherit;top=0;left=0;bottom=0;right=0;collapsible=0;dropTarget=0;fillColor=none;points=[[0,0.5],[1,0.5]];portConstraint=eastwest;fontSize=16;" vertex="1" parent="UZixV6U_UvThIk1ytOzq-186">
          <mxGeometry y="29" width="40" height="14" as="geometry" />
        </mxCell>
        <mxCell id="UZixV6U_UvThIk1ytOzq-196" value="" style="shape=partialRectangle;html=1;whiteSpace=wrap;connectable=0;strokeColor=inherit;overflow=hidden;fillColor=none;top=0;left=0;bottom=0;right=0;pointerEvents=1;fontSize=16;" vertex="1" parent="UZixV6U_UvThIk1ytOzq-195">
          <mxGeometry width="13" height="14" as="geometry">
            <mxRectangle width="13" height="14" as="alternateBounds" />
          </mxGeometry>
        </mxCell>
        <mxCell id="UZixV6U_UvThIk1ytOzq-197" value="" style="shape=partialRectangle;html=1;whiteSpace=wrap;connectable=0;strokeColor=inherit;overflow=hidden;fillColor=none;top=0;left=0;bottom=0;right=0;pointerEvents=1;fontSize=16;" vertex="1" parent="UZixV6U_UvThIk1ytOzq-195">
          <mxGeometry x="13" width="14" height="14" as="geometry">
            <mxRectangle width="14" height="14" as="alternateBounds" />
          </mxGeometry>
        </mxCell>
        <mxCell id="UZixV6U_UvThIk1ytOzq-198" value="" style="shape=partialRectangle;html=1;whiteSpace=wrap;connectable=0;strokeColor=inherit;overflow=hidden;fillColor=none;top=0;left=0;bottom=0;right=0;pointerEvents=1;fontSize=16;" vertex="1" parent="UZixV6U_UvThIk1ytOzq-195">
          <mxGeometry x="27" width="13" height="14" as="geometry">
            <mxRectangle width="13" height="14" as="alternateBounds" />
          </mxGeometry>
        </mxCell>
        <mxCell id="UZixV6U_UvThIk1ytOzq-199" value="" style="shape=table;startSize=0;container=1;collapsible=0;childLayout=tableLayout;fontSize=16;" vertex="1" parent="UZixV6U_UvThIk1ytOzq-213">
          <mxGeometry x="10" y="32.90322580645161" width="40" height="42.774193548387096" as="geometry" />
        </mxCell>
        <mxCell id="UZixV6U_UvThIk1ytOzq-200" value="" style="shape=tableRow;horizontal=0;startSize=0;swimlaneHead=0;swimlaneBody=0;strokeColor=inherit;top=0;left=0;bottom=0;right=0;collapsible=0;dropTarget=0;fillColor=none;points=[[0,0.5],[1,0.5]];portConstraint=eastwest;fontSize=16;" vertex="1" parent="UZixV6U_UvThIk1ytOzq-199">
          <mxGeometry width="40" height="14" as="geometry" />
        </mxCell>
        <mxCell id="UZixV6U_UvThIk1ytOzq-201" value="" style="shape=partialRectangle;html=1;whiteSpace=wrap;connectable=0;strokeColor=inherit;overflow=hidden;fillColor=none;top=0;left=0;bottom=0;right=0;pointerEvents=1;fontSize=16;" vertex="1" parent="UZixV6U_UvThIk1ytOzq-200">
          <mxGeometry width="13" height="14" as="geometry">
            <mxRectangle width="13" height="14" as="alternateBounds" />
          </mxGeometry>
        </mxCell>
        <mxCell id="UZixV6U_UvThIk1ytOzq-202" value="" style="shape=partialRectangle;html=1;whiteSpace=wrap;connectable=0;strokeColor=inherit;overflow=hidden;fillColor=none;top=0;left=0;bottom=0;right=0;pointerEvents=1;fontSize=16;" vertex="1" parent="UZixV6U_UvThIk1ytOzq-200">
          <mxGeometry x="13" width="14" height="14" as="geometry">
            <mxRectangle width="14" height="14" as="alternateBounds" />
          </mxGeometry>
        </mxCell>
        <mxCell id="UZixV6U_UvThIk1ytOzq-203" value="" style="shape=partialRectangle;html=1;whiteSpace=wrap;connectable=0;strokeColor=inherit;overflow=hidden;fillColor=none;top=0;left=0;bottom=0;right=0;pointerEvents=1;fontSize=16;" vertex="1" parent="UZixV6U_UvThIk1ytOzq-200">
          <mxGeometry x="27" width="13" height="14" as="geometry">
            <mxRectangle width="13" height="14" as="alternateBounds" />
          </mxGeometry>
        </mxCell>
        <mxCell id="UZixV6U_UvThIk1ytOzq-204" value="" style="shape=tableRow;horizontal=0;startSize=0;swimlaneHead=0;swimlaneBody=0;strokeColor=inherit;top=0;left=0;bottom=0;right=0;collapsible=0;dropTarget=0;fillColor=none;points=[[0,0.5],[1,0.5]];portConstraint=eastwest;fontSize=16;" vertex="1" parent="UZixV6U_UvThIk1ytOzq-199">
          <mxGeometry y="14" width="40" height="15" as="geometry" />
        </mxCell>
        <mxCell id="UZixV6U_UvThIk1ytOzq-205" value="" style="shape=partialRectangle;html=1;whiteSpace=wrap;connectable=0;strokeColor=inherit;overflow=hidden;fillColor=none;top=0;left=0;bottom=0;right=0;pointerEvents=1;fontSize=16;" vertex="1" parent="UZixV6U_UvThIk1ytOzq-204">
          <mxGeometry width="13" height="15" as="geometry">
            <mxRectangle width="13" height="15" as="alternateBounds" />
          </mxGeometry>
        </mxCell>
        <mxCell id="UZixV6U_UvThIk1ytOzq-206" value="" style="shape=partialRectangle;html=1;whiteSpace=wrap;connectable=0;strokeColor=inherit;overflow=hidden;fillColor=none;top=0;left=0;bottom=0;right=0;pointerEvents=1;fontSize=16;" vertex="1" parent="UZixV6U_UvThIk1ytOzq-204">
          <mxGeometry x="13" width="14" height="15" as="geometry">
            <mxRectangle width="14" height="15" as="alternateBounds" />
          </mxGeometry>
        </mxCell>
        <mxCell id="UZixV6U_UvThIk1ytOzq-207" value="" style="shape=partialRectangle;html=1;whiteSpace=wrap;connectable=0;strokeColor=inherit;overflow=hidden;fillColor=none;top=0;left=0;bottom=0;right=0;pointerEvents=1;fontSize=16;" vertex="1" parent="UZixV6U_UvThIk1ytOzq-204">
          <mxGeometry x="27" width="13" height="15" as="geometry">
            <mxRectangle width="13" height="15" as="alternateBounds" />
          </mxGeometry>
        </mxCell>
        <mxCell id="UZixV6U_UvThIk1ytOzq-208" value="" style="shape=tableRow;horizontal=0;startSize=0;swimlaneHead=0;swimlaneBody=0;strokeColor=inherit;top=0;left=0;bottom=0;right=0;collapsible=0;dropTarget=0;fillColor=none;points=[[0,0.5],[1,0.5]];portConstraint=eastwest;fontSize=16;" vertex="1" parent="UZixV6U_UvThIk1ytOzq-199">
          <mxGeometry y="29" width="40" height="14" as="geometry" />
        </mxCell>
        <mxCell id="UZixV6U_UvThIk1ytOzq-209" value="" style="shape=partialRectangle;html=1;whiteSpace=wrap;connectable=0;strokeColor=inherit;overflow=hidden;fillColor=none;top=0;left=0;bottom=0;right=0;pointerEvents=1;fontSize=16;" vertex="1" parent="UZixV6U_UvThIk1ytOzq-208">
          <mxGeometry width="13" height="14" as="geometry">
            <mxRectangle width="13" height="14" as="alternateBounds" />
          </mxGeometry>
        </mxCell>
        <mxCell id="UZixV6U_UvThIk1ytOzq-210" value="" style="shape=partialRectangle;html=1;whiteSpace=wrap;connectable=0;strokeColor=inherit;overflow=hidden;fillColor=none;top=0;left=0;bottom=0;right=0;pointerEvents=1;fontSize=16;" vertex="1" parent="UZixV6U_UvThIk1ytOzq-208">
          <mxGeometry x="13" width="14" height="14" as="geometry">
            <mxRectangle width="14" height="14" as="alternateBounds" />
          </mxGeometry>
        </mxCell>
        <mxCell id="UZixV6U_UvThIk1ytOzq-211" value="" style="shape=partialRectangle;html=1;whiteSpace=wrap;connectable=0;strokeColor=inherit;overflow=hidden;fillColor=none;top=0;left=0;bottom=0;right=0;pointerEvents=1;fontSize=16;" vertex="1" parent="UZixV6U_UvThIk1ytOzq-208">
          <mxGeometry x="27" width="13" height="14" as="geometry">
            <mxRectangle width="13" height="14" as="alternateBounds" />
          </mxGeometry>
        </mxCell>
        <mxCell id="UZixV6U_UvThIk1ytOzq-221" style="edgeStyle=orthogonalEdgeStyle;rounded=0;orthogonalLoop=1;jettySize=auto;html=1;" edge="1" parent="UZixV6U_UvThIk1ytOzq-7" source="UZixV6U_UvThIk1ytOzq-217" target="UZixV6U_UvThIk1ytOzq-28">
          <mxGeometry relative="1" as="geometry" />
        </mxCell>
        <mxCell id="UZixV6U_UvThIk1ytOzq-217" value="Sensor Read" style="rounded=1;whiteSpace=wrap;html=1;" vertex="1" parent="UZixV6U_UvThIk1ytOzq-7">
          <mxGeometry x="75" y="10.96774193548387" width="120" height="65.80645161290322" as="geometry" />
        </mxCell>
        <mxCell id="UZixV6U_UvThIk1ytOzq-223" style="edgeStyle=orthogonalEdgeStyle;rounded=0;orthogonalLoop=1;jettySize=auto;html=1;" edge="1" parent="UZixV6U_UvThIk1ytOzq-7" source="UZixV6U_UvThIk1ytOzq-219" target="UZixV6U_UvThIk1ytOzq-146">
          <mxGeometry relative="1" as="geometry" />
        </mxCell>
        <mxCell id="UZixV6U_UvThIk1ytOzq-219" value="Data Filtration" style="rounded=1;whiteSpace=wrap;html=1;" vertex="1" parent="UZixV6U_UvThIk1ytOzq-7">
          <mxGeometry x="75" y="180.0016129032258" width="120" height="65.80645161290322" as="geometry" />
        </mxCell>
        <mxCell id="UZixV6U_UvThIk1ytOzq-228" style="edgeStyle=orthogonalEdgeStyle;rounded=0;orthogonalLoop=1;jettySize=auto;html=1;" edge="1" parent="UZixV6U_UvThIk1ytOzq-7" source="UZixV6U_UvThIk1ytOzq-220" target="UZixV6U_UvThIk1ytOzq-227">
          <mxGeometry relative="1" as="geometry" />
        </mxCell>
        <mxCell id="UZixV6U_UvThIk1ytOzq-220" value="Decision Logic" style="rounded=1;whiteSpace=wrap;html=1;" vertex="1" parent="UZixV6U_UvThIk1ytOzq-7">
          <mxGeometry x="75" y="379.9964516129032" width="120" height="65.80645161290322" as="geometry" />
        </mxCell>
        <mxCell id="UZixV6U_UvThIk1ytOzq-224" style="edgeStyle=orthogonalEdgeStyle;rounded=0;orthogonalLoop=1;jettySize=auto;html=1;" edge="1" parent="UZixV6U_UvThIk1ytOzq-7" source="UZixV6U_UvThIk1ytOzq-146" target="UZixV6U_UvThIk1ytOzq-220">
          <mxGeometry relative="1" as="geometry" />
        </mxCell>
        <mxCell id="UZixV6U_UvThIk1ytOzq-225" value="Display Msg." style="rounded=1;whiteSpace=wrap;html=1;" vertex="1" parent="UZixV6U_UvThIk1ytOzq-7">
          <mxGeometry x="75" y="579.9970967741936" width="120" height="65.80645161290322" as="geometry" />
        </mxCell>
        <mxCell id="UZixV6U_UvThIk1ytOzq-229" style="edgeStyle=orthogonalEdgeStyle;rounded=0;orthogonalLoop=1;jettySize=auto;html=1;" edge="1" parent="UZixV6U_UvThIk1ytOzq-7" source="UZixV6U_UvThIk1ytOzq-227" target="UZixV6U_UvThIk1ytOzq-225">
          <mxGeometry relative="1" as="geometry" />
        </mxCell>
        <mxCell id="UZixV6U_UvThIk1ytOzq-227" value="&lt;ul style=&quot;font-size: 10px;&quot;&gt;&lt;li&gt;&lt;li&gt;[ 1 ]: E--- Strong left&lt;/li&gt;&lt;li&gt;[ 2 ]:&amp;nbsp;E- Slightly left&lt;/li&gt;&lt;li&gt;[ 3 ]:&amp;nbsp;-ƎE- Forward&lt;/li&gt;&lt;li&gt;[ 4 ]:&amp;nbsp;E--Ǝ Obstacle ahead&lt;/li&gt;&lt;li&gt;[ 5 ]:&amp;nbsp;-Ǝ Slightly right&lt;/li&gt;&lt;li&gt;[ 6 ]:&amp;nbsp;---Ǝ Strong right&lt;/li&gt;&lt;/li&gt;&lt;/ul&gt;" style="text;strokeColor=none;fillColor=none;html=1;whiteSpace=wrap;verticalAlign=middle;overflow=hidden;" vertex="1" parent="UZixV6U_UvThIk1ytOzq-7">
          <mxGeometry x="55" y="470" width="160" height="90" as="geometry" />
        </mxCell>
        <mxCell id="UZixV6U_UvThIk1ytOzq-8" value="" style="endArrow=classic;html=1;rounded=0;" edge="1" parent="1" source="UZixV6U_UvThIk1ytOzq-4" target="UZixV6U_UvThIk1ytOzq-7">
          <mxGeometry width="50" height="50" relative="1" as="geometry">
            <mxPoint x="280" y="200" as="sourcePoint" />
            <mxPoint x="470" y="350" as="targetPoint" />
          </mxGeometry>
        </mxCell>
      </root>
    </mxGraphModel>
  </diagram>
</mxfile>
